<svg version="1.1" xmlns="http://www.w3.org/2000/svg" xmlns:xlink="http://www.w3.org/1999/xlink" x="0px" y="0px"
	 viewBox="0 0 100 100" style="enable-background:new 0 0 100 100;" xml:space="preserve">
<g id="Vrstva_248">
	<g>
		<g>
			<path d="M39.5,87.75H6c-0.829,0-1.5-0.671-1.5-1.5v-60c0-0.829,0.671-1.5,1.5-1.5h9.5c0.829,0,1.5,0.671,1.5,1.5
				c0,0.829-0.671,1.5-1.5,1.5h-8v57h32c0.829,0,1.5,0.671,1.5,1.5C41,87.079,40.329,87.75,39.5,87.75z"/>
		</g>
		<g>
			<path d="M94,87.75H59.5c-0.829,0-1.5-0.671-1.5-1.5c0-0.829,0.671-1.5,1.5-1.5h33v-57h-8c-0.829,0-1.5-0.671-1.5-1.5
				c0-0.829,0.671-1.5,1.5-1.5H94c0.829,0,1.5,0.671,1.5,1.5v60C95.5,87.079,94.829,87.75,94,87.75z"/>
		</g>
		<g>
			<path d="M50,86.25c-0.829,0-1.5-0.671-1.5-1.5v-59c0-0.829,0.671-1.5,1.5-1.5c0.829,0,1.5,0.671,1.5,1.5v59
				C51.5,85.579,50.829,86.25,50,86.25z"/>
		</g>
		<g>
			<path d="M49.498,86.25c-0.737,0-1.377-0.542-1.483-1.289C47.974,84.741,45.737,74.25,16,74.25c-0.829,0-1.5-0.671-1.5-1.5v-59
				c0-0.829,0.671-1.5,1.5-1.5c32.893,0,35.389,12.712,35.479,13.253c0.136,0.817-0.415,1.59-1.233,1.726
				c-0.815,0.14-1.59-0.415-1.726-1.233c-0.017-0.079-2.475-10.388-31.02-10.737v55.999c31.507,0.381,33.421,12.77,33.488,13.305
				c0.103,0.822-0.48,1.572-1.302,1.674C49.623,86.246,49.56,86.25,49.498,86.25z"/>
		</g>
		<g>
			<path d="M50.498,86.237c-0.107,0-0.217-0.012-0.326-0.037c-0.798-0.18-1.308-0.955-1.141-1.756
				c0.11-0.53,3.02-12.794,33.468-13.184v-56c-27.637,0.364-31.018,10.747-31.045,10.854c-0.201,0.803-1.016,1.294-1.819,1.091
				c-0.804-0.201-1.292-1.015-1.091-1.819C48.679,24.85,52.194,12.25,84,12.25c0.829,0,1.5,0.671,1.5,1.5v59
				c0,0.829-0.671,1.5-1.5,1.5c-29.06,0-32.01,10.722-32.037,10.83C51.796,85.767,51.178,86.237,50.498,86.237z"/>
		</g>
		<g>
			<path d="M58.811,37.525c-0.59,0-1.149-0.351-1.388-0.93c-0.315-0.766,0.051-1.643,0.817-1.957
				c4.516-1.857,10.15-3.141,16.745-3.818c0.82-0.092,1.561,0.515,1.646,1.339c0.084,0.824-0.515,1.561-1.339,1.646
				c-6.309,0.647-11.662,1.861-15.911,3.608C59.194,37.489,59.001,37.525,58.811,37.525z"/>
		</g>
		<g>
			<path d="M58.811,49.525c-0.59,0-1.149-0.351-1.388-0.93c-0.315-0.766,0.051-1.643,0.817-1.957
				c4.516-1.857,10.15-3.141,16.745-3.818c0.82-0.088,1.561,0.515,1.646,1.339c0.084,0.824-0.515,1.561-1.339,1.645
				c-6.309,0.648-11.662,1.861-15.911,3.608C59.194,49.489,59.001,49.525,58.811,49.525z"/>
		</g>
		<g>
			<path d="M58.811,61.526c-0.59,0-1.149-0.351-1.388-0.93c-0.315-0.766,0.05-1.643,0.816-1.958
				c4.514-1.857,10.149-3.142,16.746-3.818c0.819-0.083,1.561,0.515,1.645,1.339c0.084,0.824-0.515,1.56-1.339,1.645
				c-6.31,0.647-11.663,1.861-15.91,3.608C59.194,61.489,59.001,61.526,58.811,61.526z"/>
		</g>
		<g>
			<path d="M41.138,37.525c-0.19,0-0.383-0.037-0.57-0.113c-4.25-1.747-9.603-2.96-15.911-3.608
				c-0.824-0.085-1.423-0.821-1.339-1.646c0.084-0.824,0.814-1.43,1.646-1.339c6.595,0.677,12.229,1.961,16.745,3.818
				c0.766,0.315,1.132,1.191,0.817,1.957C42.288,37.175,41.728,37.525,41.138,37.525z"/>
		</g>
		<g>
			<path d="M41.138,49.525c-0.19,0-0.383-0.037-0.57-0.113c-4.25-1.747-9.603-2.96-15.911-3.608
				c-0.824-0.084-1.423-0.821-1.339-1.645c0.084-0.824,0.814-1.426,1.646-1.339c6.595,0.677,12.229,1.961,16.745,3.818
				c0.766,0.315,1.132,1.191,0.817,1.957C42.288,49.175,41.728,49.525,41.138,49.525z"/>
		</g>
		<g>
			<path d="M41.138,61.526c-0.19,0-0.383-0.037-0.57-0.113c-4.247-1.747-9.6-2.961-15.91-3.608
				c-0.824-0.084-1.424-0.821-1.339-1.645c0.084-0.825,0.822-1.431,1.645-1.339c6.598,0.676,12.232,1.961,16.746,3.818
				c0.766,0.315,1.131,1.192,0.816,1.958C42.288,61.175,41.728,61.526,41.138,61.526z"/>
		</g>
	</g>
</g>
<script  type="text/javascript">
    <![CDATA[
         var c=window.location.search.split('color=')[1]; c=parseInt(c,16); if(!isNaN(c)){c=c.toString(16);var p=document.getElementsByTagName('path');for(var i=0,l=p.length;i<l;i++){var s=p[i].style;s.fill='#'+c;} var p2=document.getElementsByTagName('polygon');for(var i=0,l=p2.length;i<l;i++){var s=p2[i].style;s.fill='#'+c;} var p3=document.getElementsByTagName('circle');for(var i=0,l=p3.length;i<l;i++){var s=p3[i].style;s.fill='#'+c;} }
        ]]>
</script>
</svg>
